<svg width="24" height="25" viewBox="0 0 24 25" fill="none" xmlns="http://www.w3.org/2000/svg">
<path d="M16.017 2.77344H7.947C6.37015 2.77529 4.85844 3.40258 3.74353 4.51767C2.62862 5.63277 2.00159 7.14459 2 8.72144L2 16.7914C2.00185 18.3683 2.62914 19.88 3.74424 20.9949C4.85933 22.1098 6.37115 22.7368 7.948 22.7384H16.018C17.5948 22.7366 19.1066 22.1093 20.2215 20.9942C21.3364 19.8791 21.9634 18.3673 21.965 16.7904V8.72044C21.9631 7.14359 21.3359 5.63187 20.2208 4.51697C19.1057 3.40206 17.5938 2.77503 16.017 2.77344V2.77344ZM19.957 16.7904C19.957 17.3078 19.8551 17.8202 19.6571 18.2982C19.4591 18.7762 19.1689 19.2106 18.803 19.5764C18.4371 19.9423 18.0028 20.2325 17.5248 20.4305C17.0468 20.6285 16.5344 20.7304 16.017 20.7304H7.947C6.90222 20.7302 5.90032 20.3149 5.16165 19.5761C4.42297 18.8372 4.008 17.8352 4.008 16.7904V8.72044C4.00827 7.67566 4.42349 6.67376 5.16235 5.93508C5.90122 5.19641 6.90322 4.78144 7.948 4.78144H16.018C17.0628 4.7817 18.0647 5.19693 18.8034 5.93579C19.542 6.67465 19.957 7.67666 19.957 8.72144V16.7914V16.7904Z" fill="#263238"/>
<path d="M11.9821 7.59277C10.6135 7.59489 9.3016 8.13956 8.33397 9.10738C7.36633 10.0752 6.82192 11.3872 6.82007 12.7558C6.82166 14.1247 7.36609 15.4371 8.33397 16.4052C9.30185 17.3732 10.6142 17.9179 11.9831 17.9198C13.3522 17.9182 14.6647 17.3736 15.6328 16.4055C16.6009 15.4374 17.1455 14.1249 17.1471 12.7558C17.145 11.3869 16.6 10.0747 15.6318 9.10697C14.6635 8.13928 13.351 7.5951 11.9821 7.59377V7.59277ZM11.9821 15.9118C11.1453 15.9118 10.3428 15.5794 9.75115 14.9877C9.15947 14.396 8.82707 13.5935 8.82707 12.7568C8.82707 11.92 9.15947 11.1175 9.75115 10.5259C10.3428 9.93417 11.1453 9.60177 11.9821 9.60177C12.8188 9.60177 13.6213 9.93417 14.213 10.5259C14.8047 11.1175 15.1371 11.92 15.1371 12.7568C15.1371 13.5935 14.8047 14.396 14.213 14.9877C13.6213 15.5794 12.8188 15.9118 11.9821 15.9118Z" fill="#263238"/>
<path d="M17.1559 8.86853C17.8391 8.86853 18.3929 8.31471 18.3929 7.63153C18.3929 6.94835 17.8391 6.39453 17.1559 6.39453C16.4728 6.39453 15.9189 6.94835 15.9189 7.63153C15.9189 8.31471 16.4728 8.86853 17.1559 8.86853Z" fill="#263238"/>
</svg>
