<svg width="24" height="25" viewBox="0 0 24 25" fill="none" xmlns="http://www.w3.org/2000/svg">
<path d="M21.959 14.4928V21.8718H17.681V14.9868C17.681 13.2568 17.062 12.0768 15.514 12.0768C14.332 12.0768 13.628 12.8728 13.319 13.6418C13.206 13.9168 13.177 14.2998 13.177 14.6848V21.8718H8.897C8.897 21.8718 8.955 10.2118 8.897 9.0028H13.177V10.8268L13.149 10.8688H13.177V10.8268C13.745 9.95181 14.76 8.7008 17.033 8.7008C19.848 8.7008 21.959 10.5408 21.959 14.4928ZM4.421 2.7998C2.958 2.7998 2 3.7598 2 5.0228C2 6.2578 2.93 7.2468 4.365 7.2468H4.393C5.886 7.2468 6.813 6.2578 6.813 5.0228C6.787 3.7598 5.887 2.7998 4.422 2.7998H4.421ZM2.254 21.8718H6.532V9.0028H2.254V21.8718Z" fill="#263238"/>
</svg>
