<svg width="24" height="25" viewBox="0 0 24 25" fill="none" xmlns="http://www.w3.org/2000/svg">
<path d="M17.812 5.79006H6.145C3.855 5.79006 2 7.62506 2 9.88906V15.6571C2 17.9211 3.856 19.7571 6.145 19.7571H17.812C20.102 19.7571 21.957 17.9211 21.957 15.6571V9.88906C21.957 7.62506 20.101 5.78906 17.812 5.78906V5.79006ZM15.009 13.0531L9.552 15.6281C9.51872 15.6441 9.48192 15.6514 9.44503 15.6494C9.40815 15.6474 9.37237 15.6361 9.34103 15.6165C9.3097 15.597 9.28382 15.5698 9.2658 15.5375C9.24779 15.5053 9.23822 15.469 9.238 15.4321V10.1231C9.23867 10.0859 9.24872 10.0496 9.26722 10.0174C9.28573 9.98519 9.31208 9.95821 9.34382 9.93894C9.37556 9.91967 9.41167 9.90876 9.44877 9.9072C9.48587 9.90565 9.52276 9.91352 9.556 9.93006L15.014 12.6651C15.0504 12.6832 15.0809 12.7112 15.102 12.7459C15.1232 12.7806 15.1341 12.8205 15.1336 12.8611C15.1331 12.9018 15.1211 12.9414 15.0991 12.9755C15.077 13.0097 15.0458 13.0369 15.009 13.0541V13.0531Z" fill="#263238"/>
</svg>
