<svg width="65" height="64" viewBox="0 0 65 64" fill="none" xmlns="http://www.w3.org/2000/svg">
<path d="M25.462 57H14.1543V8H48.0774V28.7308M19.8081 19.3077H42.4235M19.8081 26.8462H34.8851M40.5389 38.1538V45.6923L46.1928 51.3462M51.8466 45.6923C51.8466 48.6913 50.6553 51.5675 48.5347 53.6881C46.4141 55.8087 43.5379 57 40.5389 57C37.5399 57 34.6638 55.8087 32.5432 53.6881C30.4226 51.5675 29.2312 48.6913 29.2312 45.6923C29.2312 42.6933 30.4226 39.8172 32.5432 37.6966C34.6638 35.576 37.5399 34.3846 40.5389 34.3846C43.5379 34.3846 46.4141 35.576 48.5347 37.6966C50.6553 39.8172 51.8466 42.6933 51.8466 45.6923Z" stroke="#D35400" stroke-width="4" stroke-linecap="round" stroke-linejoin="round"/>
</svg>
