<svg width="65" height="64" viewBox="0 0 65 64" fill="none" xmlns="http://www.w3.org/2000/svg">
<path fill-rule="evenodd" clip-rule="evenodd" d="M22.3332 55.3332C21.2398 55.3332 20.3332 54.4265 20.3332 53.3332V10.6665C20.3332 9.57317 21.2398 8.6665 22.3332 8.6665C23.4265 8.6665 24.3332 9.57317 24.3332 10.6665V53.3332C24.3332 54.4265 23.4265 55.3332 22.3332 55.3332ZM11.6665 55.3332C10.5732 55.3332 9.6665 54.4265 9.6665 53.3332V23.9998C9.6665 22.9065 10.5732 21.9998 11.6665 21.9998C12.7598 21.9998 13.6665 22.9065 13.6665 23.9998V53.3332C13.6665 54.4265 12.7598 55.3332 11.6665 55.3332ZM30.9998 53.3332C30.9998 54.4265 31.9065 55.3332 32.9998 55.3332C34.0932 55.3332 34.9998 54.4265 34.9998 53.3332V29.3332C34.9998 28.2398 34.0932 27.3332 32.9998 27.3332C31.9065 27.3332 30.9998 28.2398 30.9998 29.3332V53.3332ZM43.6665 55.3332C42.5732 55.3332 41.6665 54.4265 41.6665 53.3332V18.6665C41.6665 17.5732 42.5732 16.6665 43.6665 16.6665C44.7598 16.6665 45.6665 17.5732 45.6665 18.6665V53.3332C45.6665 54.4265 44.7598 55.3332 43.6665 55.3332ZM52.3332 53.3332C52.3332 54.4265 53.2399 55.3332 54.3332 55.3332C55.4265 55.3332 56.3332 54.4265 56.3332 53.3332V37.3332C56.3332 36.2398 55.4265 35.3332 54.3332 35.3332C53.2399 35.3332 52.3332 36.2398 52.3332 37.3332V53.3332Z" fill="#D35400"/>
</svg>
