<svg width="64" height="64" viewBox="0 0 64 64" fill="none" xmlns="http://www.w3.org/2000/svg">
<path d="M32.5 56C27.8521 56 23.3087 54.6218 19.4441 52.0395C15.5796 49.4573 12.5675 45.7871 10.7888 41.4931C9.01018 37.199 8.5448 32.4739 9.45156 27.9154C10.3583 23.3568 12.5965 19.1695 15.883 15.883C19.1695 12.5965 23.3568 10.3583 27.9154 9.45156C32.4739 8.5448 37.199 9.01018 41.4931 10.7888C45.7871 12.5675 49.4573 15.5796 52.0395 19.4441C54.6218 23.3087 56 27.8521 56 32.5C56 38.7326 53.5241 44.7099 49.117 49.117C44.7099 53.5241 38.7326 56 32.5 56ZM32.5 12.3572C28.5161 12.3572 24.6217 13.5385 21.3092 15.7518C17.9968 17.9652 15.415 21.111 13.8904 24.7917C12.3659 28.4723 11.967 32.5223 12.7442 36.4297C13.5214 40.337 15.4398 43.9261 18.2569 46.7432C21.0739 49.5602 24.663 51.4786 28.5703 52.2558C32.4777 53.033 36.5277 52.6341 40.2083 51.1096C43.889 49.585 47.0348 47.0033 49.2482 43.6908C51.4615 40.3783 52.6429 36.4839 52.6429 32.5C52.6429 27.1578 50.5207 22.0344 46.7432 18.2569C42.9656 14.4793 37.8422 12.3572 32.5 12.3572Z" fill="#D35400"/>
<path d="M40.205 42.5711L30.8218 33.1879V17.3926H34.1789V31.7947L42.5718 40.2044L40.205 42.5711Z" fill="#D35400"/>
</svg>
