<svg width="65" height="64" viewBox="0 0 65 64" fill="none" xmlns="http://www.w3.org/2000/svg">
<path d="M13.4673 31.4839C13.1198 31.4839 12.7754 31.5524 12.4546 31.686C12.1339 31.8196 11.8429 32.0156 11.5981 32.2622C11.3534 32.5089 11.16 32.8017 11.0288 33.1235C10.8982 33.4441 10.8314 33.7872 10.8335 34.1333V37.8667C10.8335 39.3211 12.0129 40.5005 13.4673 40.5005C14.9216 40.5004 16.1001 39.321 16.1001 37.8667V34.1333C16.1022 33.7872 16.0364 33.4441 15.9058 33.1235C15.7746 32.8017 15.5812 32.5089 15.3364 32.2622C15.0917 32.0156 14.8007 31.8196 14.48 31.686C14.1592 31.5524 13.8148 31.4839 13.4673 31.4839ZM50.8003 31.5005C49.3461 31.5006 48.1676 32.6791 48.1675 34.1333V37.8667C48.1675 39.321 49.3461 40.5003 50.8003 40.5005C52.2547 40.5005 53.4341 39.321 53.4341 37.8667V34.1333C53.434 32.679 52.2546 31.5005 50.8003 31.5005ZM6.50049 34.1313C6.48852 31.2381 8.27299 28.6414 10.978 27.6147L11.2681 27.5044L11.2983 27.1958C11.7059 23.0149 13.1458 17.6578 16.3677 13.3599C19.5735 9.08338 24.5564 5.8335 32.1343 5.8335C39.7121 5.83359 44.6951 9.08328 47.9009 13.3599C51.1227 17.6578 52.5617 23.0149 52.9692 27.1958L52.9995 27.5044L53.2896 27.6147C55.9946 28.6414 57.7791 31.2381 57.7671 34.1313V37.8735C57.8061 40.9149 55.8599 43.6276 52.9663 44.5649L52.7251 44.6421L52.646 44.8833C52.0961 46.5459 50.942 48.8002 48.5405 50.7993C46.1402 52.7974 42.4628 54.5663 36.8237 55.2104L36.5542 55.2407L36.4331 55.4849C36.0348 56.2863 35.4211 56.9615 34.6616 57.4351C33.9022 57.9085 33.0262 58.1605 32.1313 58.1655C29.8223 58.1643 27.8358 56.5317 27.3901 54.2661C26.9445 51.9997 28.1654 49.7343 30.3032 48.8599C32.4412 47.9854 34.899 48.7462 36.1694 50.6753L36.3403 50.9341L36.6479 50.897C43.7903 50.028 46.8041 47.0994 48.0151 44.8218L48.2593 44.3628L47.7915 44.1362C46.6103 43.5669 45.6123 42.6768 44.9126 41.5679C44.2131 40.459 43.8388 39.1758 43.8335 37.8647V34.1343C43.8351 31.3067 45.5464 28.7604 48.1636 27.6899L48.5112 27.5474L48.4712 27.1733C48.2011 24.689 47.4089 20.4568 45.0425 16.8335C42.6572 13.1814 38.681 10.1666 32.1343 10.1665C25.5877 10.1665 21.6044 13.1808 19.2124 16.8325C16.8392 20.4557 16.0402 24.6882 15.77 27.1733L15.729 27.5474L16.0786 27.6899C18.6197 28.7249 20.3133 31.1454 20.4282 33.8706L20.4341 34.1362V37.8667C20.4341 41.7141 17.3149 44.8334 13.4673 44.8335C9.6198 44.8335 6.50049 41.7143 6.50049 37.8667V34.1313Z" fill="#D35400" stroke="white"/>
</svg>
