<svg width="39" height="35" viewBox="0 0 39 35" fill="none" xmlns="http://www.w3.org/2000/svg">
<path d="M6.90415 29.7352H5.74164C5.69693 29.4868 5.61372 29.2682 5.492 29.0794C5.37028 28.8906 5.22124 28.7304 5.04488 28.5987C4.86852 28.4671 4.67104 28.3677 4.45245 28.3007C4.23634 28.2336 4.00657 28.2001 3.76314 28.2001C3.32347 28.2001 2.92975 28.3106 2.58199 28.5317C2.23672 28.7527 1.96348 29.0769 1.76227 29.5042C1.56355 29.9314 1.46419 30.453 1.46419 31.0691C1.46419 31.6901 1.56355 32.2142 1.76227 32.6414C1.96348 33.0687 2.23796 33.3916 2.58572 33.6102C2.93348 33.8288 3.32471 33.9381 3.75941 33.9381C4.00036 33.9381 4.22889 33.9058 4.44499 33.8412C4.66359 33.7741 4.86106 33.676 5.03743 33.5469C5.21379 33.4177 5.36283 33.26 5.48455 33.0737C5.60875 32.8849 5.69445 32.6688 5.74164 32.4253L6.90415 32.4291C6.84205 32.8041 6.72158 33.1494 6.54273 33.4649C6.36637 33.7779 6.13908 34.0486 5.86087 34.2772C5.58515 34.5032 5.26968 34.6783 4.91447 34.8025C4.55926 34.9267 4.17175 34.9888 3.75196 34.9888C3.09121 34.9888 2.50251 34.8323 1.98583 34.5193C1.46916 34.2039 1.06179 33.753 0.763706 33.1668C0.46811 32.5806 0.320312 31.8813 0.320312 31.0691C0.320312 30.2543 0.469352 29.5551 0.767432 28.9713C1.06551 28.3851 1.47289 27.9355 1.98956 27.6225C2.50623 27.3071 3.0937 27.1493 3.75196 27.1493C4.15685 27.1493 4.53442 27.2077 4.88466 27.3244C5.23739 27.4387 5.5541 27.6076 5.83479 27.8312C6.11548 28.0523 6.34774 28.323 6.53155 28.6434C6.71537 28.9614 6.83957 29.3253 6.90415 29.7352Z" fill="#263238"/>
<path d="M10.6031 35C10.0666 35 9.59836 34.877 9.19844 34.6311C8.79851 34.3852 8.48801 34.0412 8.26694 33.599C8.04586 33.1569 7.93532 32.6402 7.93532 32.049C7.93532 31.4553 8.04586 30.9362 8.26694 30.4915C8.48801 30.0469 8.79851 29.7016 9.19844 29.4557C9.59836 29.2098 10.0666 29.0868 10.6031 29.0868C11.1397 29.0868 11.6079 29.2098 12.0078 29.4557C12.4078 29.7016 12.7183 30.0469 12.9393 30.4915C13.1604 30.9362 13.271 31.4553 13.271 32.049C13.271 32.6402 13.1604 33.1569 12.9393 33.599C12.7183 34.0412 12.4078 34.3852 12.0078 34.6311C11.6079 34.877 11.1397 35 10.6031 35ZM10.6069 34.0648C10.9546 34.0648 11.2428 33.9729 11.4713 33.7891C11.6998 33.6052 11.8687 33.3606 11.978 33.055C12.0898 32.7495 12.1457 32.4129 12.1457 32.0453C12.1457 31.6801 12.0898 31.3448 11.978 31.0393C11.8687 30.7312 11.6998 30.4841 11.4713 30.2978C11.2428 30.1115 10.9546 30.0183 10.6069 30.0183C10.2566 30.0183 9.96599 30.1115 9.73498 30.2978C9.50645 30.4841 9.3363 30.7312 9.22452 31.0393C9.11522 31.3448 9.06058 31.6801 9.06058 32.0453C9.06058 32.4129 9.11522 32.7495 9.22452 33.055C9.3363 33.3606 9.50645 33.6052 9.73498 33.7891C9.96599 33.9729 10.2566 34.0648 10.6069 34.0648Z" fill="#263238"/>
<path d="M15.6286 27.2537V34.8845H14.5145V27.2537H15.6286Z" fill="#263238"/>
<path d="M17.1274 34.8845V29.1614H18.2414V34.8845H17.1274ZM17.69 28.2783C17.4962 28.2783 17.3298 28.2137 17.1907 28.0845C17.0541 27.9529 16.9858 27.7964 16.9858 27.6151C16.9858 27.4313 17.0541 27.2748 17.1907 27.1456C17.3298 27.0139 17.4962 26.9481 17.69 26.9481C17.8837 26.9481 18.0489 27.0139 18.1855 27.1456C18.3247 27.2748 18.3942 27.4313 18.3942 27.6151C18.3942 27.7964 18.3247 27.9529 18.1855 28.0845C18.0489 28.2137 17.8837 28.2783 17.69 28.2783Z" fill="#263238"/>
<path d="M24.9939 29.6644C24.9218 29.4383 24.825 29.2359 24.7033 29.057C24.584 28.8757 24.4412 28.7217 24.2748 28.595C24.1083 28.4658 23.9183 28.3677 23.7047 28.3007C23.4935 28.2336 23.2613 28.2001 23.0079 28.2001C22.5782 28.2001 22.1907 28.3106 21.8454 28.5317C21.5001 28.7527 21.2269 29.0769 21.0257 29.5042C20.827 29.9289 20.7276 30.4493 20.7276 31.0653C20.7276 31.6839 20.8282 32.2067 21.0294 32.634C21.2306 33.0612 21.5063 33.3854 21.8566 33.6065C22.2068 33.8276 22.6055 33.9381 23.0526 33.9381C23.4675 33.9381 23.8289 33.8536 24.1369 33.6847C24.4474 33.5158 24.6871 33.2773 24.856 32.9693C25.0274 32.6588 25.1131 32.2937 25.1131 31.8739L25.4112 31.9298H23.2278V30.9796H26.2272V31.8478C26.2272 32.4887 26.0906 33.0451 25.8173 33.5171C25.5466 33.9865 25.1715 34.3492 24.6921 34.605C24.2151 34.8609 23.6687 34.9888 23.0526 34.9888C22.3621 34.9888 21.756 34.8298 21.2343 34.5119C20.7152 34.1939 20.3103 33.7431 20.0197 33.1594C19.729 32.5731 19.5837 31.8776 19.5837 31.0728C19.5837 30.4642 19.6682 29.9177 19.8371 29.4334C20.006 28.949 20.2432 28.5379 20.5488 28.2001C20.8568 27.8597 21.2182 27.6002 21.633 27.4213C22.0503 27.24 22.5062 27.1493 23.0005 27.1493C23.4128 27.1493 23.7966 27.2102 24.1518 27.3319C24.5095 27.4536 24.8275 27.6263 25.1057 27.8498C25.3864 28.0734 25.6186 28.3392 25.8024 28.6472C25.9862 28.9527 26.1104 29.2918 26.175 29.6644H24.9939Z" fill="#FF5A01"/>
<path d="M30.01 35C29.4735 35 29.0052 34.877 28.6053 34.6311C28.2054 34.3852 27.8949 34.0412 27.6738 33.599C27.4527 33.1569 27.3422 32.6402 27.3422 32.049C27.3422 31.4553 27.4527 30.9362 27.6738 30.4915C27.8949 30.0469 28.2054 29.7016 28.6053 29.4557C29.0052 29.2098 29.4735 29.0868 30.01 29.0868C30.5466 29.0868 31.0148 29.2098 31.4147 29.4557C31.8146 29.7016 32.1251 30.0469 32.3462 30.4915C32.5673 30.9362 32.6778 31.4553 32.6778 32.049C32.6778 32.6402 32.5673 33.1569 32.3462 33.599C32.1251 34.0412 31.8146 34.3852 31.4147 34.6311C31.0148 34.877 30.5466 35 30.01 35ZM30.0137 34.0648C30.3615 34.0648 30.6496 33.9729 30.8782 33.7891C31.1067 33.6052 31.2756 33.3606 31.3849 33.055C31.4967 32.7495 31.5526 32.4129 31.5526 32.0453C31.5526 31.6801 31.4967 31.3448 31.3849 31.0393C31.2756 30.7312 31.1067 30.4841 30.8782 30.2978C30.6496 30.1115 30.3615 30.0183 30.0137 30.0183C29.6635 30.0183 29.3729 30.1115 29.1418 30.2978C28.9133 30.4841 28.7432 30.7312 28.6314 31.0393C28.5221 31.3448 28.4674 31.6801 28.4674 32.0453C28.4674 32.4129 28.5221 32.7495 28.6314 33.055C28.7432 33.3606 28.9133 33.6052 29.1418 33.7891C29.3729 33.9729 29.6635 34.0648 30.0137 34.0648Z" fill="#FF5A01"/>
<path d="M36.3321 35C35.7956 35 35.3273 34.877 34.9274 34.6311C34.5275 34.3852 34.217 34.0412 33.9959 33.599C33.7748 33.1569 33.6643 32.6402 33.6643 32.049C33.6643 31.4553 33.7748 30.9362 33.9959 30.4915C34.217 30.0469 34.5275 29.7016 34.9274 29.4557C35.3273 29.2098 35.7956 29.0868 36.3321 29.0868C36.8686 29.0868 37.3369 29.2098 37.7368 29.4557C38.1367 29.7016 38.4472 30.0469 38.6683 30.4915C38.8894 30.9362 38.9999 31.4553 38.9999 32.049C38.9999 32.6402 38.8894 33.1569 38.6683 33.599C38.4472 34.0412 38.1367 34.3852 37.7368 34.6311C37.3369 34.877 36.8686 35 36.3321 35ZM36.3358 34.0648C36.6836 34.0648 36.9717 33.9729 37.2003 33.7891C37.4288 33.6052 37.5977 33.3606 37.707 33.055C37.8188 32.7495 37.8747 32.4129 37.8747 32.0453C37.8747 31.6801 37.8188 31.3448 37.707 31.0393C37.5977 30.7312 37.4288 30.4841 37.2003 30.2978C36.9717 30.1115 36.6836 30.0183 36.3358 30.0183C35.9856 30.0183 35.695 30.1115 35.4639 30.2978C35.2354 30.4841 35.0653 30.7312 34.9535 31.0393C34.8442 31.3448 34.7895 31.6801 34.7895 32.0453C34.7895 32.4129 34.8442 32.7495 34.9535 33.055C35.0653 33.3606 35.2354 33.6052 35.4639 33.7891C35.695 33.9729 35.9856 34.0648 36.3358 34.0648Z" fill="#FF5A01"/>
<mask id="path-2-inside-1_44_7776" fill="white">
<path d="M23.1694 1.05176C21.1823 0.732113 19.1458 0.949399 17.2708 1.68113C15.3959 2.41286 13.7506 3.63243 12.5052 5.2136C11.2599 6.79476 10.4598 8.68005 10.1878 10.6743C9.91582 12.6685 10.1818 14.6992 10.9582 16.5561C11.7346 18.413 12.9932 20.0287 14.6037 21.2358C16.2142 22.4429 18.1181 23.1976 20.1183 23.4218C22.1184 23.646 24.1422 23.3315 25.98 22.5109C27.8178 21.6903 29.4029 20.3934 30.5711 18.7544L21.3761 12.2003L23.1694 1.05176Z"/>
</mask>
<path d="M23.1694 1.05176C21.1823 0.732113 19.1458 0.949399 17.2708 1.68113C15.3959 2.41286 13.7506 3.63243 12.5052 5.2136C11.2599 6.79476 10.4598 8.68005 10.1878 10.6743C9.91582 12.6685 10.1818 14.6992 10.9582 16.5561C11.7346 18.413 12.9932 20.0287 14.6037 21.2358C16.2142 22.4429 18.1181 23.1976 20.1183 23.4218C22.1184 23.646 24.1422 23.3315 25.98 22.5109C27.8178 21.6903 29.4029 20.3934 30.5711 18.7544L21.3761 12.2003L23.1694 1.05176Z" stroke="#263238" stroke-width="22" mask="url(#path-2-inside-1_44_7776)"/>
<ellipse cx="21.4398" cy="12.1732" rx="9.35704" ry="9.26619" fill="#FDF4FF"/>
<path d="M17.3132 14.3426C17.515 14.4536 17.7137 14.5923 17.7898 14.6424C17.8385 14.6745 17.8779 14.6998 17.9138 14.7205L18.0173 14.7733L18.2654 14.8856L18.4587 15.077L18.5984 15.2166L21.3611 17.9647L17.4695 17.7781L10.575 17.4481L10.572 14.452L16.5164 14.159L16.9412 14.1375L17.3132 14.3426Z" fill="#FF5A01" stroke="#FDF4FF" stroke-width="3"/>
<path d="M15.8723 12.5043L16.094 12.724L16.2551 12.8851L16.3616 13.0863C16.4479 13.2496 16.5575 13.4479 16.6428 13.5863L15.3069 14.4515L15.2424 15.7972L7.46802 15.4222L7.46704 12.4261L14.7415 12.0697L15.4036 12.0375L15.8723 12.5043Z" fill="#FF5A01" stroke="#FDF4FF" stroke-width="3"/>
<path d="M16.5798 13.5377C16.6583 13.6121 16.7332 13.6956 16.7771 13.7448C16.8272 13.8009 16.888 13.8702 16.9382 13.9274C17.0502 14.0549 17.1545 14.1719 17.2507 14.2682L16.113 15.4615L16.0515 16.7682L9.08472 16.4352L9.08276 13.4391L15.4753 13.1285L16.115 13.0973L16.5798 13.5377Z" fill="#FF5A01" stroke="#FDF4FF" stroke-width="3"/>
<path d="M20.0475 10.3138C19.9713 10.087 19.8662 9.88396 19.732 9.70475C19.601 9.52275 19.4424 9.36734 19.2565 9.23854C19.0736 9.10973 18.8633 9.01313 18.6255 8.94873C18.3877 8.88153 18.1286 8.84792 17.8482 8.84792C17.3452 8.84792 16.8971 8.96413 16.5039 9.19654C16.1107 9.42894 15.8013 9.77055 15.5757 10.2214C15.3532 10.6694 15.2419 11.2154 15.2419 11.8594C15.2419 12.509 15.3532 13.0593 15.5757 13.5101C15.7982 13.9609 16.1076 14.3039 16.5039 14.5391C16.9002 14.7715 17.3605 14.8877 17.8848 14.8877C18.3603 14.8877 18.7718 14.8037 19.1193 14.6357C19.4699 14.4677 19.7396 14.2297 19.9286 13.9217C20.1176 13.6109 20.2121 13.2469 20.2121 12.8297L20.5962 12.8843H18.0539V11.6662H21.8536V12.6994C21.8536 13.4359 21.6829 14.0729 21.3415 14.6105C21.0001 15.1481 20.5307 15.5625 19.9332 15.8538C19.3358 16.1422 18.6499 16.2864 17.8756 16.2864C17.013 16.2864 16.2555 16.1086 15.6031 15.7529C14.9538 15.3945 14.4463 14.8863 14.0805 14.2283C13.7178 13.5675 13.5364 12.7835 13.5364 11.8762C13.5364 11.1818 13.6431 10.5616 13.8564 10.0156C14.0729 9.46954 14.3747 9.00613 14.7618 8.62532C15.1489 8.24171 15.6031 7.9505 16.1244 7.75169C16.6456 7.55008 17.2126 7.44928 17.8253 7.44928C18.3435 7.44928 18.8267 7.51928 19.2748 7.65929C19.7229 7.79649 20.1207 7.9925 20.4682 8.24731C20.8187 8.50211 21.1068 8.80452 21.3324 9.15453C21.558 9.50455 21.7058 9.89096 21.7759 10.3138H20.0475Z" fill="#FF5A01"/>
<path d="M26.1895 16.0973C25.4219 16.0973 24.7521 15.9214 24.18 15.5696C23.6079 15.2178 23.1637 14.7257 22.8474 14.0932C22.5312 13.4606 22.373 12.7215 22.373 11.8758C22.373 11.0265 22.5312 10.2839 22.8474 9.64778C23.1637 9.01171 23.6079 8.51778 24.18 8.16599C24.7521 7.8142 25.4219 7.63831 26.1895 7.63831C26.957 7.63831 27.6268 7.8142 28.1989 8.16599C28.771 8.51778 29.2152 9.01171 29.5315 9.64778C29.8477 10.2839 30.0059 11.0265 30.0059 11.8758C30.0059 12.7215 29.8477 13.4606 29.5315 14.0932C29.2152 14.7257 28.771 15.2178 28.1989 15.5696C27.6268 15.9214 26.957 16.0973 26.1895 16.0973ZM26.1948 14.7594C26.6923 14.7594 27.1045 14.6279 27.4314 14.365C27.7583 14.102 27.9999 13.752 28.1563 13.3149C28.3162 12.8779 28.3962 12.3964 28.3962 11.8705C28.3962 11.3481 28.3162 10.8684 28.1563 10.4313C27.9999 9.99069 27.7583 9.63712 27.4314 9.37061C27.1045 9.1041 26.6923 8.97085 26.1948 8.97085C25.6938 8.97085 25.278 9.1041 24.9475 9.37061C24.6206 9.63712 24.3772 9.99069 24.2173 10.4313C24.0609 10.8684 23.9828 11.3481 23.9828 11.8705C23.9828 12.3964 24.0609 12.8779 24.2173 13.3149C24.3772 13.752 24.6206 14.102 24.9475 14.365C25.278 14.6279 25.6938 14.7594 26.1948 14.7594Z" fill="#FF5A01"/>
<rect x="21.125" y="2.36194" width="9.81126" height="1.09014" rx="0.54507" fill="#FDF4FF"/>
<path d="M31.5236 1.90774L28.98 0V0.749871V3.06562V3.81549L31.5236 1.90774Z" fill="#263238"/>
<rect x="20.4155" y="0.913391" width="9.59081" height="2.05517" fill="#263238"/>
<path d="M16.5903 15.657L10.6465 15.95L17.541 16.2799L17.401 16.1406C17.0536 15.984 16.8558 15.8031 16.5903 15.657Z" fill="#FF5A01"/>
<path d="M14.815 13.5677L7.54028 13.9239L15.3149 14.2992C15.3312 14.3246 15.3487 14.3486 15.3656 14.3734C15.2534 14.1914 15.1259 13.9575 15.036 13.7875L14.815 13.5677Z" fill="#FF5A01"/>
<path d="M9.15601 14.937L16.1229 15.2695C16.145 15.2903 16.1682 15.309 16.1907 15.3294C15.9227 15.0616 15.6602 14.7332 15.5477 14.6266L9.15601 14.937Z" fill="#FF5A01"/>
</svg>
