<svg width="35" height="32" viewBox="0 0 35 32" fill="none" xmlns="http://www.w3.org/2000/svg">
<mask id="path-1-inside-1_10_35350" fill="white">
<path d="M21.988 1.41316C19.3196 0.983912 16.5849 1.2757 14.0672 2.2583C11.5494 3.24091 9.34001 4.87862 7.66774 7.0019C5.99547 9.12517 4.9211 11.6568 4.55585 14.3348C4.1906 17.0127 4.54775 19.7397 5.59032 22.2332C6.63289 24.7268 8.32299 26.8964 10.4856 28.5174C12.6483 30.1384 15.2049 31.1519 17.8908 31.4529C20.5767 31.754 23.2942 31.3317 25.7621 30.2297C28.23 29.1277 30.3584 27.3862 31.9272 25.1853L19.5798 16.384L21.988 1.41316Z"/>
</mask>
<path d="M21.988 1.41316C19.3196 0.983912 16.5849 1.2757 14.0672 2.2583C11.5494 3.24091 9.34001 4.87862 7.66774 7.0019C5.99547 9.12517 4.9211 11.6568 4.55585 14.3348C4.1906 17.0127 4.54775 19.7397 5.59032 22.2332C6.63289 24.7268 8.32299 26.8964 10.4856 28.5174C12.6483 30.1384 15.2049 31.1519 17.8908 31.4529C20.5767 31.754 23.2942 31.3317 25.7621 30.2297C28.23 29.1277 30.3584 27.3862 31.9272 25.1853L19.5798 16.384L21.988 1.41316Z" stroke="#263238" stroke-width="22" mask="url(#path-1-inside-1_10_35350)"/>
<ellipse cx="19.6647" cy="16.3474" rx="12.5649" ry="12.4432" fill="white"/>
<path d="M13.8755 19.7119C14.1225 19.8479 14.3606 20.0141 14.48 20.0928C14.6207 20.1855 14.7283 20.2506 14.8569 20.3086L15.105 20.4199L15.2983 20.6123L15.4868 20.7998L18.2485 23.5469L14.3569 23.3613L5.09912 22.918L5.09619 19.9219L13.0776 19.5283L13.5024 19.5068L13.8755 19.7119Z" fill="#D35400" stroke="white" stroke-width="3"/>
<path d="M11.8262 17.1553L12.123 17.4502L12.2852 17.6113L12.3916 17.8125C12.5088 18.0341 12.6614 18.3129 12.7852 18.5137L11.4307 19.3906L11.3682 20.6992L0.927734 20.1953L0.926758 17.1992L10.6953 16.7207L11.3564 16.6885L11.8262 17.1553Z" fill="#D35400" stroke="white" stroke-width="3"/>
<path d="M12.7837 18.5518C12.8718 18.6353 12.9598 18.7325 13.019 18.7988C13.0845 18.8722 13.1632 18.9626 13.2329 19.042C13.3837 19.2138 13.534 19.3812 13.6763 19.5234L12.5132 20.7432L12.4536 22.002L3.09814 21.5557L3.09619 18.5596L11.6792 18.1426L12.3188 18.1113L12.7837 18.5518Z" fill="#D35400" stroke="white" stroke-width="3"/>
<path d="M17.7958 13.8486C17.6934 13.544 17.5522 13.2714 17.3721 13.0307C17.1961 12.7863 16.9832 12.5776 16.7335 12.4047C16.4879 12.2317 16.2055 12.102 15.8862 12.0155C15.5669 11.9253 15.219 11.8801 14.8424 11.8801C14.167 11.8801 13.5653 12.0362 13.0372 12.3483C12.5092 12.6604 12.0937 13.1191 11.7908 13.7245C11.492 14.3261 11.3426 15.0593 11.3426 15.9241C11.3426 16.7965 11.492 17.5353 11.7908 18.1407C12.0896 18.7461 12.5051 19.2067 13.0372 19.5226C13.5694 19.8347 14.1875 19.9907 14.8915 19.9907C15.5301 19.9907 16.0827 19.8779 16.5493 19.6523C17.0201 19.4267 17.3823 19.1071 17.6361 18.6935C17.8899 18.2761 18.0168 17.7873 18.0168 17.227L18.5326 17.3003H15.1187V15.6647H20.2211V17.0522C20.2211 18.0411 19.9918 18.8965 19.5334 19.6185C19.0749 20.3404 18.4446 20.8969 17.6423 21.2879C16.84 21.6752 15.919 21.8689 14.8792 21.8689C13.7208 21.8689 12.7036 21.6301 11.8277 21.1526C10.9558 20.6713 10.2742 19.9888 9.78303 19.1052C9.29592 18.2178 9.05237 17.165 9.05237 15.9467C9.05237 15.0142 9.19564 14.1813 9.48217 13.4481C9.7728 12.7149 10.178 12.0926 10.6979 11.5812C11.2177 11.0661 11.8277 10.675 12.5276 10.408C13.2276 10.1373 13.9889 10.002 14.8117 10.002C15.5076 10.002 16.1564 10.096 16.7581 10.284C17.3598 10.4682 17.894 10.7314 18.3606 11.0736C18.8314 11.4158 19.2182 11.8218 19.5211 12.2919C19.824 12.7619 20.0225 13.2808 20.1167 13.8486H17.7958Z" fill="#D35400"/>
<path d="M26.042 21.616C25.0114 21.616 24.1119 21.3798 23.3436 20.9074C22.5754 20.435 21.9789 19.7741 21.5543 18.9248C21.1296 18.0754 20.9172 17.0829 20.9172 15.9472C20.9172 14.8067 21.1296 13.8094 21.5543 12.9553C21.9789 12.1011 22.5754 11.4378 23.3436 10.9654C24.1119 10.493 25.0114 10.2568 26.042 10.2568C27.0727 10.2568 27.9722 10.493 28.7404 10.9654C29.5087 11.4378 30.1051 12.1011 30.5298 12.9553C30.9545 13.8094 31.1668 14.8067 31.1668 15.9472C31.1668 17.0829 30.9545 18.0754 30.5298 18.9248C30.1051 19.7741 29.5087 20.435 28.7404 20.9074C27.9722 21.3798 27.0727 21.616 26.042 21.616ZM26.0492 19.8195C26.7172 19.8195 27.2708 19.6429 27.7098 19.2898C28.1487 18.9367 28.4732 18.4667 28.6832 17.8797C28.8979 17.2928 29.0053 16.6462 29.0053 15.94C29.0053 15.2386 28.8979 14.5944 28.6832 14.0074C28.4732 13.4157 28.1487 12.941 27.7098 12.5831C27.2708 12.2252 26.7172 12.0463 26.0492 12.0463C25.3764 12.0463 24.8181 12.2252 24.3743 12.5831C23.9353 12.941 23.6085 13.4157 23.3937 14.0074C23.1838 14.5944 23.0788 15.2386 23.0788 15.94C23.0788 16.6462 23.1838 17.2928 23.3937 17.8797C23.6085 18.4667 23.9353 18.9367 24.3743 19.2898C24.8181 19.6429 25.3764 19.8195 26.0492 19.8195Z" fill="#D35400"/>
<rect x="19.2419" y="3.17285" width="13.1749" height="1.4639" rx="0.73195" fill="white"/>
<path d="M33.2053 2.56182L29.7896 0V1.00697V4.11668V5.12364L33.2053 2.56182Z" fill="#263238"/>
<rect x="18.2896" y="1.22754" width="12.8788" height="2.7598" fill="#263238"/>
<path d="M13.152 21.0264L5.17053 21.4199L14.4287 21.8628L14.2407 21.6758C13.7742 21.4655 13.5086 21.2226 13.152 21.0264Z" fill="#D35400"/>
<path d="M10.7687 18.2188L1 18.6971L11.4401 19.201C11.462 19.2351 11.4855 19.2674 11.5081 19.3007C11.3574 19.0563 11.1862 18.7422 11.0655 18.5139L10.7687 18.2188Z" fill="#D35400"/>
<path d="M3.16943 20.0574L12.5249 20.504C12.5544 20.5319 12.5856 20.557 12.6158 20.5844C12.256 20.2247 11.9035 19.7838 11.7524 19.6406L3.16943 20.0574Z" fill="#D35400"/>
</svg>
