<svg width="64" height="64" viewBox="0 0 64 64" fill="none" xmlns="http://www.w3.org/2000/svg">
<path d="M47.4961 11.1504C50.3439 11.1505 52.6787 13.4852 52.6787 16.333V26.5361L38.9639 43.6797H24.1807V44.8301C24.1806 49.451 20.453 53.1787 15.832 53.1787C11.211 53.1787 7.4825 49.451 7.48242 44.8301V43.6797H1.15039V35.3311C1.15039 28.9685 6.30341 23.8154 12.666 23.8154H24.1807V39.6475H37.0293L37.375 39.2158L48.3936 25.4424L48.6455 25.127V15.1826H39.1465V11.1504H47.4961ZM11.5156 44.8301C11.5157 47.2066 13.4554 49.1465 15.832 49.1465C18.2086 49.1464 20.1484 47.2066 20.1484 44.8301V43.6797H11.5156V44.8301ZM12.666 27.8486C8.54787 27.8486 5.18262 31.2129 5.18262 35.3311V39.6475H20.1484V27.8486H12.666Z" fill="#263238" stroke="#FDF4FF" stroke-width="2.3"/>
<path d="M53.8289 36.4814C58.4498 36.4814 62.1782 40.2093 62.1785 44.8301C62.1785 49.4511 58.4499 53.1797 53.8289 53.1797C49.2079 53.1795 45.4802 49.451 45.4802 44.8301C45.4805 40.2094 49.2081 36.4816 53.8289 36.4814ZM53.8289 40.5146C51.4525 40.5148 49.5127 42.4538 49.5125 44.8301C49.5125 47.2066 51.4524 49.1463 53.8289 49.1465C56.2055 49.1465 58.1453 47.2067 58.1453 44.8301C58.145 42.4537 56.2053 40.5146 53.8289 40.5146ZM24.1814 14.3174V18.3496H10.6501V14.3174H24.1814Z" fill="#263238" stroke="#FDF4FF" stroke-width="2.3"/>
</svg>
