<svg width="64" height="64" viewBox="0 0 64 64" fill="none" xmlns="http://www.w3.org/2000/svg">
<path d="M9.33325 29.3335V37.3335C9.33325 47.3895 9.33325 52.4188 12.4586 55.5415C15.5839 58.6642 20.6106 58.6668 30.6666 58.6668H33.3332C43.3892 58.6668 48.4186 58.6668 51.5412 55.5415C54.6639 52.4162 54.6666 47.3895 54.6666 37.3335V29.3335" stroke="#263238" stroke-width="1.5"/>
<path d="M25.3334 5.3335H38.6667L40.4054 22.7122C40.5199 23.8849 40.3878 25.0686 40.0175 26.1872C39.6472 27.3058 39.047 28.3345 38.2553 29.2072C37.4637 30.08 36.4982 30.7774 35.4209 31.2547C34.3436 31.7319 33.1783 31.9785 32 31.9785C30.8217 31.9785 29.6565 31.7319 28.5792 31.2547C27.5019 30.7774 26.5364 30.08 25.7447 29.2072C24.9531 28.3345 24.3528 27.3058 23.9825 26.1872C23.6123 25.0686 23.4801 23.8849 23.5947 22.7122L25.3334 5.3335Z" stroke="#263238" stroke-width="1.5"/>
<path d="M8.87998 14.2695C9.35465 11.8962 9.59198 10.7095 10.0746 9.74683C10.5776 8.74427 11.2857 7.85866 12.1531 7.1475C13.0204 6.43634 14.0276 5.91551 15.1093 5.61883C16.1493 5.3335 17.36 5.3335 19.7813 5.3335H25.3333L23.4 24.6535C23.298 25.7592 22.9713 26.8324 22.4401 27.8075C21.9089 28.7825 21.1843 29.6389 20.3106 30.3242C19.437 31.0095 18.4326 31.5093 17.3591 31.793C16.2855 32.0766 15.1654 32.1382 14.0672 31.9739C12.9691 31.8096 11.916 31.423 10.9725 30.8376C10.029 30.2522 9.21483 29.4803 8.57995 28.5694C7.94506 27.6584 7.50278 26.6275 7.28017 25.5396C7.05756 24.4518 7.05931 23.33 7.28531 22.2428L8.87998 14.2695ZM55.12 14.2695C54.6453 11.8962 54.408 10.7095 53.9253 9.74683C53.4224 8.74427 52.7143 7.85866 51.8469 7.1475C50.9796 6.43634 49.9724 5.91551 48.8907 5.61883C47.8507 5.3335 46.64 5.3335 44.2187 5.3335H38.6667L40.6 24.6535C40.702 25.7592 41.0286 26.8324 41.5598 27.8075C42.0911 28.7825 42.8157 29.6389 43.6894 30.3242C44.563 31.0095 45.5674 31.5093 46.6409 31.793C47.7144 32.0766 48.8346 32.1382 49.9327 31.9739C51.0309 31.8096 52.084 31.423 53.0275 30.8376C53.971 30.2522 54.7852 29.4803 55.42 28.5694C56.0549 27.6584 56.4972 26.6275 56.7198 25.5396C56.9424 24.4518 56.9407 23.33 56.7147 22.2428L55.12 14.2695Z" stroke="#263238" stroke-width="1.5"/>
<path d="M25.3333 57.3337V49.3337C25.3333 46.8403 25.3333 45.595 25.8693 44.667C26.2203 44.059 26.7252 43.5541 27.3333 43.203C28.2613 42.667 29.5066 42.667 31.9999 42.667C34.4932 42.667 35.7386 42.667 36.6666 43.203C37.2746 43.5541 37.7795 44.059 38.1306 44.667C38.6666 45.595 38.6666 46.8403 38.6666 49.3337V57.3337" stroke="#263238" stroke-width="1.5" stroke-linecap="round"/>
</svg>
