<svg width="64" height="64" viewBox="0 0 64 64" fill="none" xmlns="http://www.w3.org/2000/svg">
<path d="M32 55.9998L53.6827 44.7785C54.5253 44.3412 54.9467 44.1252 55.2533 43.8025C55.525 43.5193 55.7307 43.1797 55.856 42.8078C56 42.3838 56 41.9118 56 40.9625V20.0878M32 55.9998L10.3173 44.7785C9.47467 44.3412 9.05333 44.1252 8.74667 43.8025C8.47504 43.5193 8.26926 43.1797 8.144 42.8078C8 42.3838 8 41.9092 8 40.9572V20.0878M32 55.9998V31.8318M56 20.0878L32 31.8318M56 20.0878L44 13.8745M8 20.0878L30.0507 8.67717C30.7653 8.30917 31.12 8.1225 31.496 8.0505C31.8289 7.98642 32.1711 7.98642 32.504 8.0505C32.8773 8.1225 33.2347 8.30917 33.9467 8.67717L44 13.8745M8 20.0878L20 25.9625M32 31.8318L20 25.9598M44 13.8745L20 25.9598M20 25.9598V31.8318" stroke="#263238" stroke-width="1.5" stroke-linecap="round" stroke-linejoin="round"/>
</svg>
