<svg width="64" height="64" viewBox="0 0 64 64" fill="none" xmlns="http://www.w3.org/2000/svg">
<path d="M39.9004 30.584L39.9014 30.585C40.9277 30.8197 41.9445 31.1023 42.9512 31.4346L42.9521 31.4355L45.8506 32.3867H45.8516C47.4675 32.9114 48.9242 33.8364 50.0869 35.0752C51.2496 36.3141 52.0807 37.8267 52.502 39.4727V39.4736L52.5176 39.5352L53.7402 48.375C54.1615 51.4127 52.537 54.4798 49.3516 55.2383C45.9122 56.0577 40.318 56.9297 32.1035 56.9297C23.8894 56.9297 18.2958 56.0577 14.8564 55.2383C11.7704 54.5035 10.1494 51.6019 10.4316 48.6592L10.4648 48.375L11.6895 39.5332L11.7051 39.4736L11.7061 39.4727C12.1273 37.8268 12.9575 36.314 14.1201 35.0752C15.2829 33.8363 16.7404 32.9114 18.3564 32.3867H18.3574L21.2559 31.4355C22.2629 31.1052 23.2799 30.8208 24.3066 30.584H24.3076L24.8994 30.4463L25.3281 30.8691L25.3418 30.8818L25.3535 30.8936L25.4268 30.96V30.9609C25.508 31.0352 25.6289 31.1338 25.7822 31.2549V31.2559C26.0995 31.5097 26.5734 31.8479 27.1768 32.1855C28.3853 32.8663 30.0831 33.5322 32.1035 33.5322C33.8713 33.5322 35.3926 33.0248 36.5557 32.4395L37.0322 32.1855C37.6488 31.8373 38.2305 31.4301 38.7686 30.9697L38.7734 30.9648L38.7793 30.96L38.8389 30.9043L38.8574 30.8906L38.877 30.8711L39.3057 30.4463L39.9004 30.584ZM39.8008 32.999C39.2715 33.4143 38.7113 33.7884 38.125 34.1182L38.1211 34.1201C36.2892 35.1724 34.217 35.7337 32.1045 35.751C29.5973 35.7505 27.5217 34.9256 26.0889 34.1182L25.6543 33.8633C25.2245 33.5995 24.8104 33.3111 24.4121 32.999L24.2568 32.877L24.0664 32.9258C23.3537 33.1091 22.6477 33.3149 21.9492 33.543L21.9482 33.5439L19.0527 34.4941C17.8072 34.8999 16.682 35.6102 15.7793 36.5596C14.8765 37.5091 14.2243 38.6689 13.8818 39.9336L13.875 39.958L13.8721 39.9834L12.667 48.6787C12.3715 50.8031 13.5033 52.6303 15.374 53.0781C18.629 53.856 24.0469 54.7109 32.1035 54.7109C39.6598 54.7109 44.897 53.9595 48.2041 53.2246L48.8398 53.0781C50.7109 52.6302 51.8387 50.8029 51.5469 48.6797V48.6787L50.3389 39.9824L50.335 39.958L50.3291 39.9336L50.2607 39.6973C49.9036 38.5243 49.2771 37.4498 48.4307 36.5596C47.5278 35.6101 46.4031 34.8998 45.1572 34.4941H45.1582L42.2627 33.5439C41.5636 33.3136 40.8579 33.1072 40.1465 32.9258L39.9561 32.877L39.8008 32.999ZM32.1064 6.40039C33.4417 6.40039 34.7644 6.66284 35.998 7.17383C37.2317 7.68481 38.3527 8.43375 39.2969 9.37793C40.2411 10.3221 40.99 11.4431 41.501 12.6768C42.012 13.9104 42.2744 15.2331 42.2744 16.5684C42.2743 19.2649 41.2036 21.8511 39.2969 23.7578C37.39 25.6647 34.8032 26.7363 32.1064 26.7363C29.4099 26.7362 26.8238 25.6646 24.917 23.7578C23.0102 21.8511 21.9386 19.2649 21.9385 16.5684C21.9385 15.2331 22.2019 13.9104 22.7129 12.6768C23.2239 11.4431 23.9728 10.3221 24.917 9.37793C25.8612 8.43378 26.9822 7.6848 28.2158 7.17383C29.4493 6.66292 30.7714 6.40045 32.1064 6.40039ZM32.1064 8.61914C29.9985 8.61925 27.9769 9.45677 26.4863 10.9473C24.9957 12.4379 24.1582 14.4603 24.1582 16.5684C24.1583 18.6763 24.9958 20.6979 26.4863 22.1885C27.9769 23.679 29.9985 24.5165 32.1064 24.5166C34.2145 24.5166 36.2369 23.6791 37.7275 22.1885C39.218 20.6979 40.0556 18.6763 40.0557 16.5684C40.0557 14.4603 39.2182 12.4379 37.7275 10.9473C36.2369 9.45663 34.2145 8.61914 32.1064 8.61914Z" fill="#263238" stroke="#FDF4FF" stroke-width="0.8"/>
</svg>
