<svg width="66" height="66" viewBox="0 0 66 66" fill="none" xmlns="http://www.w3.org/2000/svg">
<path d="M8.25 27.0985C8.25 24.2825 10.5325 22 13.3485 22C15.279 22 17.0445 20.9082 17.908 19.1812L20.1658 14.6658C20.4683 14.0608 20.6195 13.7582 20.7927 13.497C21.2343 12.8194 21.8198 12.2476 22.5076 11.8221C23.1954 11.3967 23.9686 11.1282 24.772 11.0358C25.0855 11 25.4238 11 26.1003 11H39.8997C40.5762 11 40.9173 11 41.2253 11.0358C42.0292 11.1278 42.8029 11.3961 43.4912 11.8216C44.1795 12.247 44.7654 12.8191 45.2072 13.497C45.3805 13.7582 45.5317 14.0608 45.8342 14.6658L48.0892 19.1812C48.512 20.0297 49.1634 20.7432 49.97 21.2413C50.7766 21.7393 51.7063 22.0021 52.6542 22C55.4675 22 57.75 24.2825 57.75 27.0985V40.8568C57.75 46.3705 57.75 49.126 56.485 51.1418C55.8253 52.1901 54.938 53.0764 53.889 53.735C51.876 55 49.1205 55 43.6068 55H22.3932C16.8795 55 14.124 55 12.1082 53.735C11.0599 53.0753 10.1736 52.188 9.515 51.139C8.25 49.126 8.25 46.3705 8.25 40.8568V27.0985Z" stroke="#D9D9D9" stroke-width="2.75"/>
<path d="M33 45.375C38.3157 45.375 42.625 41.0657 42.625 35.75C42.625 30.4343 38.3157 26.125 33 26.125C27.6843 26.125 23.375 30.4343 23.375 35.75C23.375 41.0657 27.6843 45.375 33 45.375Z" stroke="#D9D9D9" stroke-width="2.75"/>
</svg>
