<svg width="25" height="25" viewBox="0 0 25 25" fill="none" xmlns="http://www.w3.org/2000/svg">
<path d="M22.6562 12.5C22.6562 6.89111 18.1089 2.34375 12.5 2.34375C6.89111 2.34375 2.34375 6.89111 2.34375 12.5C2.34375 18.1089 6.89111 22.6562 12.5 22.6562C18.1089 22.6562 22.6562 18.1089 22.6562 12.5Z" stroke="#263238" stroke-miterlimit="10"/>
<path d="M21.7564 8.40525C20.9723 8.41013 21.0494 9.85691 20.0724 9.17429C19.7096 8.92136 19.4864 8.55369 19.0309 8.44187C18.6329 8.34421 18.2252 8.44578 17.8321 8.51365C17.3853 8.5908 16.8556 8.62546 16.5167 8.96384C16.1891 9.28953 16.0157 9.72654 15.6671 10.0542C14.9928 10.6889 14.7081 11.3818 15.1446 12.2793C15.5645 13.1421 16.443 13.6103 17.3907 13.5488C18.3219 13.4868 19.2892 12.9468 19.2623 14.2998C19.2525 14.7783 19.3526 15.1103 19.4996 15.5551C19.6358 15.9653 19.6266 16.3628 19.6578 16.7861C19.7154 17.5771 19.8609 18.4638 20.2535 19.1626L20.9859 18.1294C21.0763 18.0014 21.2652 17.8222 21.3102 17.6714C21.3897 17.4043 21.233 16.9453 21.2149 16.646C21.1969 16.3467 21.2057 16.0434 21.1598 15.7441C21.0953 15.3247 20.8473 14.9316 20.8131 14.5171C20.7501 13.7451 20.8912 13.1289 20.2965 12.4834C19.7223 11.8608 18.8805 11.7114 18.0763 11.8379C17.671 11.9013 16.0396 12.1621 16.6944 11.2358C16.8238 11.0537 17.0499 10.9043 17.1954 10.7309C17.3219 10.5801 17.4317 10.3027 17.5802 10.185C17.7286 10.0674 18.4102 9.9321 18.6056 9.99216C18.8009 10.0522 19.0045 10.334 19.1739 10.459C19.487 10.6947 19.8523 10.8515 20.2389 10.916C20.9059 11.0136 22.3004 10.626 22.2896 9.77048C22.2877 9.36033 21.9068 8.78904 21.7564 8.40525ZM14.0357 15.4443C13.7755 14.3486 12.2867 13.9824 11.484 13.3882C11.0226 13.0464 10.6119 12.5185 10.006 12.4756C9.72666 12.4555 9.49277 12.5161 9.21592 12.4443C8.96201 12.3789 8.76279 12.2422 8.49228 12.2778C7.98691 12.3442 7.66806 12.8843 7.1251 12.811C6.60996 12.7417 6.0792 12.1391 5.96201 11.6484C5.81162 11.0176 6.31064 10.813 6.84531 10.7568C7.06846 10.7334 7.31894 10.708 7.5333 10.7895C7.81553 10.8945 7.94883 11.1709 8.20224 11.3105C8.67734 11.5708 8.77353 11.1548 8.70078 10.7329C8.59189 10.101 8.46494 9.84324 9.02842 9.40867C9.41904 9.10886 9.75303 8.89206 9.69053 8.35349C9.65342 8.03708 9.48008 7.89402 9.6417 7.57908C9.76426 7.33933 10.1007 7.12302 10.3199 6.97996C10.8858 6.61081 12.7442 6.63816 11.985 5.60496C11.7618 5.30173 11.3502 4.75974 10.9596 4.68552C10.4713 4.59324 10.2545 5.13816 9.91416 5.37839C9.56259 5.62693 8.87803 5.90916 8.52597 5.52488C8.05234 5.00779 8.83994 4.83787 9.01426 4.47703C9.18857 4.11619 8.61045 3.43406 8.30088 3.26121L6.84531 4.89353C6.8035 5.1669 6.81805 5.44593 6.88809 5.71346C6.95812 5.981 7.08214 6.23138 7.25254 6.44919C7.54209 6.82175 8.00303 6.94138 8.02402 7.45017C8.04453 7.93845 7.96836 8.18845 7.64902 8.53171C7.51084 8.6782 7.41318 8.88621 7.27256 9.02341C7.10019 9.19089 7.16416 9.13962 6.89512 9.18552C6.38926 9.27097 5.95859 9.40281 5.46982 9.53757C4.65537 9.76267 4.58017 8.4321 4.20908 7.91013L2.98838 8.89597C2.97519 9.05759 3.18857 9.35496 3.24668 9.53074C3.58017 10.5351 4.25303 11.312 4.6876 12.2729C5.14512 13.2905 6.37363 13.0083 6.91611 13.8999C7.39756 14.6909 6.8834 15.6924 7.24375 16.5205C7.50547 17.1216 8.12265 17.2529 8.54844 17.6924C8.98349 18.1362 8.97422 18.7436 9.04062 19.3213C9.11548 20.0007 9.23702 20.6742 9.40439 21.3369C9.46347 21.5659 9.51767 21.8686 9.67441 22.0576C9.78183 22.1875 10.1505 22.2993 10.0016 22.3423C10.2096 22.3764 10.5802 22.5708 10.7535 22.4282C10.982 22.2407 10.921 21.6635 10.9605 21.4028C11.0792 20.6264 11.4679 19.8672 11.9923 19.2861C12.5103 18.7129 13.2203 18.3247 13.6578 17.6748C14.0841 17.041 14.2125 16.186 14.0357 15.4443ZM12.4054 16.7295C12.1124 17.2524 11.4601 17.6025 11.0406 18.018C10.9269 18.1308 10.6847 18.5215 10.5421 18.437C10.44 18.3764 10.4054 17.8696 10.3678 17.7534C10.1738 17.1682 9.80352 16.6574 9.30771 16.291C9.15488 16.1753 8.77597 16.0249 8.68857 15.8662C8.59092 15.6938 8.67881 15.2871 8.68222 15.0996C8.6876 14.8261 8.56308 14.3716 8.63047 14.123C8.70859 13.8364 8.5582 14.0093 8.81455 13.9526C8.9498 13.9223 9.5084 14.0205 9.67685 14.0556C9.94443 14.1113 10.0919 14.2778 10.3028 14.4463C10.8575 14.8911 11.4684 15.2353 12.0899 15.5761C12.5714 15.8427 12.713 16.1801 12.4054 16.7295ZM9.00693 3.27585C9.23838 3.50193 9.45615 3.76951 9.80136 3.79197C10.128 3.81394 10.4361 3.63718 10.7213 3.85935C11.0377 4.10349 11.2657 4.41257 11.6856 4.48875C12.0919 4.56248 12.5221 4.32517 12.6227 3.90964C12.7203 3.51365 12.5099 3.08298 12.4972 2.68552C12.4972 2.63035 12.527 2.38523 12.4889 2.34373C12.4605 2.31248 12.2242 2.34763 12.1881 2.34861C11.9234 2.35642 11.6594 2.37465 11.3961 2.4033C10.436 2.50721 9.49584 2.7481 8.6041 3.11863C8.72275 3.20066 8.87168 3.23337 9.00693 3.27585ZM17.4024 6.01902C17.817 6.01902 18.2379 5.83347 18.1041 5.35398C17.9918 4.95212 17.8004 4.51609 17.3346 4.73289C17.0382 4.87058 16.6183 5.22117 16.5836 5.56882C16.544 5.96335 17.1261 6.01902 17.4024 6.01902ZM17.0714 8.11716C17.4947 8.37058 18.1227 8.25144 18.442 7.88962C18.6915 7.60642 18.8385 7.11472 19.2872 7.11521C19.4848 7.1148 19.6745 7.19215 19.8155 7.33054C20.0011 7.52244 19.9644 7.70261 20.004 7.94285C20.0924 8.4824 20.671 7.97361 20.8219 7.76462C20.9195 7.62839 21.0519 7.42624 21.0074 7.249C20.9664 7.08347 20.773 6.9072 20.6871 6.75535C20.4361 6.31589 20.2296 5.80466 19.8536 5.44968C19.4918 5.10789 19.047 5.14744 18.7037 5.50242C18.4225 5.79539 18.0958 6.02732 17.9034 6.38376C17.7677 6.63425 17.6148 6.75388 17.3399 6.81882C17.1886 6.85447 17.0157 6.86765 16.8888 6.96921C16.5353 7.24753 16.7364 7.91599 17.0714 8.11716Z" fill="#263238"/>
</svg>
